PathFileType	3	(X/Y/Z)	D:\Vicon Setup\UG\Test1\New Session\NewSession14.trc
DataRate	CameraRate	NumFrames	NumMarkers	Units	OrigDataRate	OrigDataStartFrame	OrigNumFrames
100.0	100.0	13	27	mm	100.0	333	173	
Frame#	Time	Sternum			LShoulder			RShoulder			LASIS			RASIS			RPSIS			LPSIS			RKneeLateral			RKneeMedial			RFibulaHead			RMidShank			RAnkleLateral			RAnkleMedial			RHeel			RMT5			RMT2			RToe			LKneeLateral			LKneeMedial			LFibulaHead			LMidShank			LAnkleLateral			LAnkleMedial			LHeel			LMT5			LMT2			LToe			
		X1	Y1	Z1	X2	Y2	Z2	X3	Y3	Z3	X4	Y4	Z4	X5	Y5	Z5	X6	Y6	Z6	X7	Y7	Z7	X8	Y8	Z8	X9	Y9	Z9	X10	Y10	Z10	X11	Y11	Z11	X12	Y12	Z12	X13	Y13	Z13	X14	Y14	Z14	X15	Y15	Z15	X16	Y16	Z16	X17	Y17	Z17	X18	Y18	Z18	X19	Y19	Z19	X20	Y20	Z20	X21	Y21	Z21	X22	Y22	Z22	X23	Y23	Z23	X24	Y24	Z24	X25	Y25	Z25	X26	Y26	Z26	X27	Y27	Z27	
333	3.32	-209.96463	1350.6591	936.58691	-397.66275	1398.0066	1025.1187	-22.887337	1409.3623	999.73468	-304.50876	974.64551	1019.8712	-53.793968	982.95697	1023.5645	-124.81071	1016.7601	1190.8024	-255.74609	1008.3579	1198.6266	-22.81498	505.67084	1083.4541	-153.07204	477.93069	1063.9867	-17.576759	456.46094	1133.3289	-104.50864	363.97745	1262.9386	-53.648609	339.06229	1468.5425	-122.82717	293.39493	1419.3611	-128.0166	389.73209	1498.84	-4.6402197	186.36407	1510.1266	-66.752365	182.09923	1463.7438	-59.850697	137.02174	1461.9142	-327.5289	505.21725	955.21454	-201.53979	502.98566	940.66968	-328.12076	442.02194	972.34198	-233.01672	294.97379	955.35736	-270.10361	101.09011	1036.2922	-186.5643	119.40991	992.26685	-199.7149	67.269447	1107.6985				-246.35176	57.258064	886.00275	-308.07874	40.855465	908.62677
334	3.33	-208.85634	1339.7811	908.50928	-400.47476	1388.5338	995.65942	-23.709167	1403.1406	974.41382	-306.61932	969.17889	995.86823	-56.397606	976.56055	996.79431	-124.96106	1006.0741	1167.0574	-256.81006	1000.4146	1174.1464	-23.845943	499.44214	1036.851	-155.78865	472.6427	1016.8394	-18.914486	452.32199	1085.3297	-106.2231	362.47522	1216.5707	-53.805042	342.87009	1422.2594	-124.36633	297.98227	1374.4097	-127.60506	393.68314	1454.5359	-4.7285156	189.60921	1461.9921	-67.22493	186.25052	1416.9442	-60.341984	141.25211	1414.6106	-326.26657	499.48245	935.40869	-199.94254	496.95114	915.78955	-326.74692	438.03564	951.36127	-230.39195	290.98715	941.28491	-267.71484	101.87551	1035.9781	-183.22858	118.25546	993.55157	-199.51675	67.552124	1107.4517				-245.162	56.521378	885.45404	-307.1467	41.471401	908.24146
335	3.34	-207.24339	1328.6295	879.5437	-402.88916	1380.2659	965.83838	-24.648504	1397.4677	948.99933	-308.34705	964.44604	969.63257	-57.738186	969.74286	970.20294	-124.67709	995.901	1143.5818	-256.57608	993.88165	1149.6799	-25.509649	495.43915	990.37561	-158.28613	469.22443	969.15784	-20.473747	449.9794	1036.8121	-107.60483	361.51074	1169.2223	-54.009052	345.09058	1374.0016	-125.74924	300.8905	1327.2994	-126.74919	395.74149	1408.9694	-4.7471557	190.95517	1410.85	-67.884918	188.6118	1367.4701	-61.195614	143.68857	1364.5192	-325.47473	496.04791	916.5238	-197.47687	491.95691	895.82111	-326.10165	433.92447	929.10065	-229.44191	285.80069	931.54565	-268.7475	102.42471	1034.4531	-183.84845	119.04211	992.29364	-200.28374	67.921371	1107.3783				-245.29578	55.952713	885.51361	-306.49329	41.700397	908.01044
336	3.35	-205.608	1317.8357	850.5116	-404.66425	1373.0487	934.92853	-26.17054	1392.7343	923.81018	-309.46063	961.18561	937.61829	-56.911282	963.13208	943.70105	-124.1002	987.47357	1120.1794	-255.54883	990.07257	1124.1215	-27.598782	494.67139	943.94415	-160.65523	468.2543	921.69836	-21.968151	449.5087	987.99365	-108.61367	361.01138	1120.8782	-54.124153	345.24603	1324.7106	-127.69094	302.69913	1278.5073	-125.58022	395.72562	1362.4495	-4.7188754	190.46426	1357.5696	-68.697441	189.14294	1315.584	-62.266953	144.32092	1311.7936	-324.80032	491.41748	894.3775	-195.05978	487.85022	881.71033	-325.76981	429.27606	909.43304	-229.03244	282.18686	922.44971	-270.30432	102.04417	1034.0538	-184.30901	117.67584	991.09753	-201.70367	67.94709	1107.674				-245.82675	55.204716	886.09424	-308.04489	40.830967	907.97784
337	3.36	-203.82603	1309.1169	823.51263	-405.95349	1367.5507	903.46246	-27.613289	1389.3446	898.66168	-310.90628	957.47473	907.50031	-54.435932	955.97388	920.88611	-124.2372	981.80237	1095.1876	-255.11569	989.21436	1097.5978	-29.142443	496.48608	897.40399	-162.74902	469.33109	873.99573	-23.531693	451.00595	939.12323	-109.26346	361.13782	1071.8833	-54.147942	343.5332	1274.9956	-128.66913	302.43707	1228.6893	-124.71204	393.40976	1315.2642	-4.8636026	187.94856	1302.1747	-69.629753	188.08067	1261.6578	-63.42955	143.21678	1256.5645	-324.10867	485.93582	874.66797	-193.50331	483.54752	869.05408	-325.54083	425.02945	892.74274	-227.61349	278.62451	915.54913	-269.94772	101.9518	1033.2201	-183.57155	117.24236	990.84045	-201.68774	68.199066	1107.5294				-245.92102	54.951038	886.08313	-309.16318	40.547161	908.22864
338	3.37	-202.56219	1304.0796	797.97626	-406.8248	1363.8828	871.67505	-28.916786	1387.2924	874.43164	-310.12067	952.17212	882.01965	-53.380547	952.64514	896.59515	-125.73466	982.20819	1068.3881	-256.03226	989.54248	1070.28	-30.216551	499.75348	851.22815	-164.22412	473.03464	827.3161	-25.221869	454.36359	890.64471	-109.69979	361.82889	1022.441	-54.49054	340.15198	1224.7383	-129.48022	300.57944	1177.7572	-124.17861	388.70502	1267.6926	-5.1693616	183.63252	1245.0846	-70.548706	185.40462	1205.8036	-64.60405	140.81676	1199.2305	-323.73541	481.01871	859.78339	-193.77751	477.34613	856.72266	-325.41995	420.64255	880.41718	-225.81816	275.64114	910.15814	-267.53137	101.99821	1031.6786	-181.88411	116.51546	988.89777	-200.36421	68.653946	1106.9717				-245.53223	54.527981	886.05719	-308.17133	40.703255	908.62097
339	3.38	-201.83167	1303.6348	770.36951	-407.49826	1362.0122	840.03931	-29.966431	1386.4565	850.68219	-311.26044	944.12909	857.79297	-53.989075	952.07172	869.56555	-127.44411	985.85919	1040.0829	-257.46078	990.36755	1042.8278	-31.408216	504.51929	806.13245	-165.76398	479.12848	782.89844	-27.174217	459.28833	842.55481	-110.12763	362.93893	972.72589	-55.248062	335.05319	1173.8633	-130.32979	297.69495	1126.2072	-123.99867	381.47601	1219.988	-5.5433884	177.67953	1186.5731	-71.377045	181.33548	1148.1661	-65.47258	137.03952	1139.5546	-324.59698	476.51917	850.14758	-195.55855	470.51379	844.38104	-326.01324	416.04306	872.45166	-225.27452	272.50714	904.5943	-268.02737	104.55143	1031.7926	-180.52982	116.47657	987.42279	-199.82777	69.843178	1106.286				-245.31606	54.204788	886.01929	-307.60507	40.965923	908.70575
340	3.39	-201.40695	1306.5881	741.50836	-408.28665	1362.4253	808.43927	-30.827942	1387.2428	827.15149	-311.60938	940.96069	832.42926	-54.124382	953.29846	843.0968	-128.09082	988.62616	1011.6251	-259.34131	991.86389	1015.1412	-32.735432	511.38687	762.27917	-166.84473	486.01474	739.25122	-29.08877	465.80801	795.78168	-110.77563	364.31436	922.95404	-55.999535	328.15594	1122.8917	-130.83276	292.32919	1073.1171	-124.3009	371.6358	1172.0741	-5.9910665	170.25862	1126.3516	-72.178253	176.05594	1088.9391	-66.295242	132.49889	1078.1924	-325.40717	472.82648	842.13763	-196.83366	464.96054	834.06854	-326.39926	412.63739	866.32996	-225.99582	270.15433	898.75592	-266.13562	104.22977	1028.657	-180.09808	117.13068	985.65613	-199.98732	71.761215	1105.6375				-245.38579	53.877594	885.93225	-307.89706	40.716873	908.66644
341	3.4	-200.69066	1310.9011	712.24744	-408.43121	1364.8563	776.84766	-31.13796	1389.2339	803.23401	-312.29449	944.84088	805.45081	-54.717487	956.86017	815.84137	-128.83519	990.58167	984.47015	-261.23041	994.36157	986.79633	-34.358932	520.09808	719.89563	-168.06868	496.03787	695.99609	-30.609549	473.5502	750.73322	-111.81878	365.70514	873.11737	-57.347153	319.33026	1071.3566	-132.29303	286.55032	1020.0359	-125.18759	359.46173	1123.8582	-6.5046053	162.09753	1064.8079	-73.040482	169.97224	1028.1412	-67.066887	127.01394	1014.0607	-326.15564	471.21277	834.84503	-198.29422	462.2645	823.29694	-326.66769	411.77179	860.39557	-226.89151	269.55017	893.41467	-267.83368	107.5813	1028.6936	-180.14934	118.77848	983.11713	-200.49927	74.929344	1104.6637				-245.99341	53.978535	885.48651	-308.36234	40.489044	908.57129
342	3.41	-199.18242	1315.8121	683.22015	-407.94748	1368.8372	744.8739	-31.55521	1392.4814	779.03339	-313.41345	949.68677	777.73383	-55.63892	961.84869	787.91046	-131.36034	993.82495	957.1145	-262.92313	997.81116	957.79376	-35.957874	529.84241	679.18994	-168.8811	507.50076	654.55042	-31.879391	481.71078	707.09662	-113.20657	367.23489	824.03937	-58.794037	309.23248	1019.7556	-133.66472	279.57697	966.13818	-126.5556	344.90375	1075.0035	-7.2314482	153.23938	1001.426	-74.123833	163.49725	965.99896	-67.925331	121.69393	948.64197	-326.38309	472.07977	827.66675	-198.07964	463.08188	815.74799	-326.60315	414.24951	854.53333	-227.56638	271.05298	888.33905	-268.29871	110.19544	1026.0222	-180.75067	121.28905	980.67255	-201.36566	80.028755	1102.8773				-246.08667	53.195648	885.39532	-308.83075	40.548012	908.35571
343	3.42	-197.10286	1320.7885	654.58002	-407.31747	1374.426	712.95972	-31.655327	1397.0079	754.28491	-316.7059	949.34406	754.13397	-57.337559	967.27881	760.59241	-133.98698	998.04126	929.08069	-264.3833	1002.2482	928.4715	-37.340042	539.94672	639.82263	-169.78221	520.28705	613.84174	-33.211189	489.5426	665.26855	-115.34241	368.42645	774.82373	-60.702038	297.84171	967.3396	-135.45966	271.97308	911.95581	-128.45459	328.61179	1025.4856	-8.3824596	144.03616	936.95312	-75.227661	157.0117	902.7948	-68.924171	116.49042	882.29492	-325.94318	475.66895	819.64386	-197.14323	466.082	807.71271	-325.93832	418.40518	847.92059	-227.48582	274.5867	883.45905	-269.1908	114.98751	1023.4485	-181.52637	124.90044	977.85144	-202.28827	87.404716	1100.2749				-246.80251	53.39925	884.07001	-309.39609	40.357185	908.23187
344	3.43	-194.92653	1326.1174	625.95074	-406.40585	1381.3263	680.92499	-31.351339	1402.8373	729.00519	-317.41986	953.8327	723.55585	-58.891293	973.75653	731.58472	-135.12328	1003.3437	900.1745	-265.49182	1007.4186	898.6167	-38.2953	550.29468	602.18402	-170.14627	532.80908	575.9726	-34.372231	496.90485	624.95874	-117.1117	369.66373	726.86102	-62.855938	285.00821	914.23651	-137.77507	263.42953	856.79425	-130.87363	311.23547	974.97437	-10.291565	134.35457	871.47522	-76.786034	150.34198	838.54004	-70.346008	111.62854	814.75732	-324.93127	481.42377	809.79663	-196.15863	470.77646	798.55035	-325.2666	424.35822	839.92889	-227.59769	280.2009	877.21191	-269.42993	120.12295	1018.734	-182.49272	129.34741	973.58405	-203.37598	97.051567	1096.29				-247.4913	53.407475	882.1076	-309.53033	39.913532	907.39117
345	3.44	-192.54842	1332.3221	597.54041	-405.14996	1389.2369	648.64008	-31.47407	1409.6224	703.19501	-318.08054	958.40869	693.70477	-60.399925	981.2345	701.14655	-135.28969	1010.1458	870.34143	-266.23483	1013.4304	868.34601	-38.733128	560.40845	565.81116	-170.14281	545.55835	540.48151	-35.187344	503.6351	586.19879	-118.81154	370.46658	679.41858	-65.150154	271.21927	860.11957	-139.80299	254.69592	801.52155	-133.33495	292.59027	922.79547	-12.446564	124.76399	805.28656	-78.849251	143.71216	773.599	-72.316551	107.22032	746.71545	-323.90021	488.17926	798.36292	-194.82173	477.41867	789.76306	-324.76288	432.00095	830.29041	-228.0497	287.2504	869.32397	-270.52402	127.57143	1012.4562	-184.0354	135.61278	967.10974	-204.67592	109.27415	1090.2242				-247.80632	52.639366	879.87311	-309.98062	39.654472	905.95117
